<?xml version="1.0" encoding="utf-8"?>
<!-- Generator: Adobe Illustrator 23.0.4, SVG Export Plug-In . SVG Version: 6.00 Build 0)  -->
<svg version="1.1" id="arrow-frame" xmlns="http://www.w3.org/2000/svg" xmlns:xlink="http://www.w3.org/1999/xlink" x="0px"
	 y="0px" viewBox="0 0 343.1 395.1" style="enable-background:new 0 0 343.1 395.1;" xml:space="preserve">
<style type="text/css">
	.frame-color{fill:#00FF99;}
	.background-color{fill:#ffffff;}
	.text-color{fill:#000000;}
	.outline{fill:#E6E6E6;}
</style>
<path id="WhiteBackground" class="background-color" d="M328.4,1H76.7C69.1,1,63,7.2,63,14.7v251.7c0,7.6,6.2,13.7,13.7,13.7h251.6
	c7.6,0,13.7-6.2,13.8-13.7V14.7C342.1,7.1,335.9,1,328.4,1z"/>
<path id="Outline" class="outline" d="M328.3,281.1H76.7c-8.1,0-14.7-6.6-14.7-14.7V14.7C62,6.6,68.6,0,76.7,0h251.7
	c8.1,0,14.7,6.6,14.7,14.7v251.7C343,274.5,336.4,281.1,328.3,281.1z M76.7,2C69.7,2,64,7.7,64,14.7v251.7c0,7,5.7,12.7,12.7,12.7
	h251.6c7,0,12.7-5.7,12.8-12.7V14.7c0-7-5.7-12.7-12.7-12.7H76.7z"/>

	<path id="CallToActionArrow" class="frame-color" d="M43.2,177.1L43.2,177.1
	c0.2-3.4,0.5-6.9,0.8-10.3c0.4-3.4,0.8-6.8,1.4-10.1c0.6-3.3,1.3-6.6,2.1-9.8c0.9-3.1,1.9-6.2,3.2-8.7l0,0c0.1-0.3,0.2-0.7,0.3-1.1
	c0.6-3.2-1.4-6.3-4.6-6.9l-0.3-0.1c-0.4-0.1-0.6-0.1-0.9-0.1c-0.3,0-0.5-0.1-0.8-0.1c-0.5,0-1-0.1-1.5-0.1c-1,0-2,0.1-3,0.1
	c-2,0.2-3.9,0.4-5.8,0.7c-3.8,0.6-7.6,1.4-11.2,2.4c-3.6,1.1-7.2,2.3-10.6,3.8c-1.7,0.7-3.4,1.6-5.1,2.3c-1.7,0.8-3.3,1.8-4.9,2.6
	c-0.5,0.3-0.8,0.8-0.6,1.4c0.2,0.7,0.8,1.1,1.5,0.9h0.1c1.8-0.4,3.5-0.9,5.2-1.3c1.8-0.4,3.5-0.8,5.2-1c3.5-0.7,7-1,10.5-1.2
	c2.2-0.1,4.5-0.1,6.7-0.1c-4.6,5.4-8.6,11.2-11.9,17.2c-4.5,8.1-8,16.6-10.8,25.3C2.7,200.3,0,218.4,0,236.5c0,18,2.7,36.1,8.3,53.2
	c5.7,17.1,14.3,33.1,25.6,47c0.5,0.6,1.4,0.8,2.1,0.3c0.7-0.5,0.8-1.5,0.3-2.1l0,0c-10.4-14-18.2-29.9-22.9-46.6s-6.5-34.2-5.8-51.4
	c0.7-17.3,4-34.4,9.9-50.5c3-8,6.6-15.8,11-23c2.8-4.6,5.9-8.9,9.4-12.8c0,2,0,3.9,0.1,5.9c0.2,3.6,0.4,7.1,0.8,10.6
	c0.4,3.5,0.8,7,1.4,10.5c0.1,0.7,0.7,1.3,1.5,1.4C42.4,178.7,43.2,178,43.2,177.1z"></path>
	<g transform="rotate(-5) translate(-45 15)">
		<svg id="TextArea" x="68" y="245" width="290" height="140" viewBox="0 0 44.26318359375 17.588541666667" preserveAspectRatio="xMinYMid meet">
<svg version="1.1" xmlns="http://www.w3.org/2000/svg"><path class="frame-color" fill="#FFFFFF" d=" M6.69775390625,8.39501953125q0.1611328125-0.10205078125,0.341064453125-0.260498046875t0.35986328125-0.35986328125t0.346435546875-0.43505859375t0.292724609375-0.47265625t0.201416015625-0.47802734375t0.0751953125-0.459228515625q0-0.16650390625-0.02685546875-0.2685546875t-0.072509765625-0.158447265625t-0.104736328125-0.077880859375t-0.12353515625-0.021484375q-0.2578125,0-0.58544921875,0.217529296875t-0.690185546875,0.5908203125t-0.7412109375,0.872802734375t-0.733154296875,1.071533203125t-0.668701171875,1.178955078125t-0.5478515625,1.19775390625t-0.37060546875,1.130615234375t-0.136962890625,0.969482421875q0,0.1611328125,0.024169921875,0.265869140625t0.06982421875,0.16650390625t0.115478515625,0.083251953125t0.1611328125,0.021484375q0.15576171875,0,0.367919921875-0.131591796875t0.451171875-0.341064453125t0.4833984375-0.46728515625t0.459228515625-0.507568359375t0.38671875-0.4619140625t0.26318359375-0.335693359375q0,0.00537109375,0.131591796875,0.11279296875t0.308837890625,0.2578125t0.3544921875,0.303466796875t0.2685546875,0.249755859375q-0.12890625,0.14501953125-0.32763671875,0.37060546875t-0.448486328125,0.475341796875t-0.534423828125,0.502197265625t-0.58544921875,0.453857421875t-0.60693359375,0.32763671875t-0.59619140625,0.126220703125q-0.20947265625,0-0.44580078125-0.126220703125t-0.46728515625-0.32763671875t-0.4296875-0.44580078125t-0.3330078125-0.486083984375q-0.1611328125-0.30078125-0.18798828125-0.55322265625t-0.02685546875-0.40283203125q0-0.41357421875,0.1181640625-0.9345703125t0.33837890625-1.087646484375t0.53173828125-1.152099609375t0.690185546875-1.13330078125t0.82177734375-1.03125t0.92919921875-0.84326171875t1.00439453125-0.566650390625t1.050048828125-0.206787109375q0.150390625,0,0.31689453125,0.077880859375t0.32763671875,0.2041015625t0.3115234375,0.292724609375t0.26318359375,0.341064453125t0.179931640625,0.34912109375t0.067138671875,0.319580078125q0,0.322265625-0.12890625,0.711669921875t-0.34912109375,0.7841796875t-0.523681640625,0.770751953125t-0.647216796875,0.67138671875z M8.88916015625,12.6435546875q0,0.1611328125,0.1181640625,0.1611328125q0.12353515625,0,0.32763671875-0.196044921875t0.42431640625-0.496826171875q-0.0107421875-0.05908203125-0.013427734375-0.104736328125t-0.002685546875-0.083251953125q0-0.107421875,0.024169921875-0.255126953125t0.120849609375-0.335693359375q0.064453125-0.14501953125,0.15576171875-0.28466796875q0.0751953125-0.12353515625,0.1826171875-0.265869140625t0.236328125-0.265869140625l0.0322265625-0.0322265625q0.0537109375,0.064453125,0.142333984375,0.174560546875t0.17724609375,0.2255859375t0.15576171875,0.212158203125t0.083251953125,0.13427734375q0,0.23095703125-0.083251953125,0.4619140625t-0.222900390625,0.45654296875q0.322265625-0.021484375,0.598876953125-0.163818359375t0.577392578125-0.464599609375q0.04833984375,0.04833984375,0.126220703125,0.131591796875t0.126220703125,0.142333984375q-0.2255859375,0.236328125-0.443115234375,0.39208984375t-0.43505859375,0.2470703125t-0.443115234375,0.131591796875t-0.4619140625,0.040283203125q-0.1826171875,0.193359375-0.39208984375,0.3544921875t-0.427001953125,0.279296875t-0.432373046875,0.1826171875t-0.408203125,0.064453125q-0.1611328125,0-0.3330078125-0.0966796875t-0.3115234375-0.239013671875t-0.23095703125-0.303466796875t-0.09130859375-0.28466796875q0-0.408203125,0.110107421875-0.81103515625t0.34375-0.754638671875t0.59619140625-0.620361328125t0.862060546875-0.408203125q0.01611328125-0.0107421875,0.056396484375-0.01611328125t0.067138671875-0.00537109375q0.0751953125,0,0.158447265625,0.056396484375t0.15576171875,0.126220703125t0.120849609375,0.136962890625t0.04833984375,0.088623046875q-0.0107421875,0.02685546875-0.08056640625,0.067138671875t-0.18798828125,0.136962890625t-0.279296875,0.276611328125t-0.3544921875,0.475341796875q-0.2900390625,0.43505859375-0.39208984375,0.786865234375t-0.10205078125,0.545166015625z M13.36865234375,10.59716796875q-0.064453125,0.171875-0.12890625,0.34912109375t-0.12890625,0.365234375q0.33837890625-0.38671875,0.582763671875-0.631103515625t0.41357421875-0.384033203125t0.27392578125-0.190673828125t0.163818359375-0.051025390625q0.06982421875,0,0.20947265625,0.06982421875t0.281982421875,0.171875t0.2470703125,0.20947265625t0.104736328125,0.18798828125q0,0.01611328125-0.00537109375,0.040283203125t-0.01611328125,0.061767578125q-0.04296875,0.13427734375-0.110107421875,0.31689453125t-0.142333984375,0.378662109375l-0.150390625,0.39208984375t-0.13427734375,0.367919921875t-0.0966796875,0.30078125t-0.03759765625,0.18798828125q0,0.0322265625,0.0322265625,0.0322265625q0.05908203125,0,0.17724609375-0.06982421875t0.271240234375-0.1826171875t0.319580078125-0.2470703125t0.319580078125-0.265869140625t0.276611328125-0.239013671875t0.18798828125-0.1611328125q0.0537109375,0.04833984375,0.1181640625,0.12353515625t0.12353515625,0.1396484375q-0.1181640625,0.1181640625-0.29541015625,0.287353515625t-0.384033203125,0.346435546875t-0.4296875,0.3544921875t-0.432373046875,0.31689453125t-0.39208984375,0.2255859375t-0.30615234375,0.0859375q-0.08056640625,0-0.2041015625-0.056396484375t-0.239013671875-0.1396484375t-0.196044921875-0.185302734375t-0.08056640625-0.19873046875q0.04833984375-0.22021484375,0.131591796875-0.49951171875t0.179931640625-0.572021484375t0.201416015625-0.580078125t0.201416015625-0.529052734375l-0.0107421875,0.0107421875q-0.10205078125,0.12353515625-0.292724609375,0.324951171875t-0.432373046875,0.515625t-0.51025390625,0.75732421875t-0.5263671875,1.050048828125q-0.0322265625,0.0751953125-0.05908203125,0.1181640625t-0.10205078125,0.04296875q-0.09130859375,0-0.206787109375-0.051025390625t-0.236328125-0.13427734375t-0.24169921875-0.185302734375t-0.217529296875-0.2041015625q0-0.0322265625,0.029541015625-0.1826171875t0.083251953125-0.378662109375t0.13427734375-0.52099609375t0.1826171875-0.614990234375t0.222900390625-0.657958984375t0.260498046875-0.647216796875q0.2255859375,0.107421875,0.502197265625,0.26318359375t0.512939453125,0.365234375z M16.79541015625,13.48681640625q-0.09130859375,0-0.239013671875-0.083251953125t-0.287353515625-0.2041015625t-0.24169921875-0.249755859375t-0.10205078125-0.22021484375q0-0.1611328125,0.088623046875-0.51025390625t0.233642578125-0.797607421875t0.330322265625-0.958740234375t0.373291015625-0.9990234375l-0.75732421875,0l-0.00537109375,0q-0.00537109375,0-0.00537109375-0.0107421875q0-0.0322265625,0.024169921875-0.093994140625t0.05908203125-0.12890625t0.08056640625-0.12353515625t0.088623046875-0.072509765625l0.6982421875-0.0322265625q0.150390625-0.365234375,0.287353515625-0.674072265625t0.244384765625-0.529052734375q0.02685546875-0.05908203125,0.056396484375-0.126220703125t0.0859375-0.13427734375t0.150390625-0.1396484375t0.255126953125-0.147705078125q0.1181640625-0.05908203125,0.287353515625-0.12890625t0.3330078125-0.12890625t0.298095703125-0.099365234375t0.193359375-0.040283203125q0.0537109375,0,0.0537109375,0.021484375l0,0.0107421875q0,0.00537109375-0.0107421875,0.02685546875q-0.0322265625,0.0537109375-0.1181640625,0.233642578125t-0.212158203125,0.451171875t-0.279296875,0.61767578125t-0.314208984375,0.733154296875l1.2890625-0.04833984375q0.0537109375,0,0.0322265625,0.064453125t-0.08056640625,0.150390625t-0.136962890625,0.17724609375t-0.131591796875,0.1396484375q-0.0107421875,0.0107421875-0.04296875,0.021484375t-0.08056640625,0.0107421875l-1.0634765625,0q-0.193359375,0.46728515625-0.37060546875,0.9453125t-0.31689453125,0.90771484375t-0.222900390625,0.78955078125t-0.083251953125,0.5908203125q0,0.0322265625,0.0322265625,0.0322265625q0.05908203125,0,0.17724609375-0.067138671875t0.265869140625-0.174560546875t0.314208984375-0.236328125t0.31689453125-0.255126953125t0.271240234375-0.23095703125t0.185302734375-0.158447265625q0.04833984375,0.04833984375,0.115478515625,0.12353515625t0.126220703125,0.1396484375q-0.1181640625,0.1181640625-0.29541015625,0.287353515625t-0.384033203125,0.346435546875t-0.4296875,0.3544921875t-0.43505859375,0.31689453125t-0.394775390625,0.2255859375t-0.30615234375,0.0859375z M21.81201171875,12.71875q0,0.0322265625,0.0322265625,0.0322265625q0.04833984375,0,0.1611328125-0.06982421875t0.2578125-0.17724609375t0.308837890625-0.24169921875t0.314208984375-0.26318359375t0.271240234375-0.236328125t0.185302734375-0.16650390625q0.04833984375,0.04833984375,0.120849609375,0.12890625t0.131591796875,0.14501953125q-0.12890625,0.1181640625-0.308837890625,0.287353515625t-0.38671875,0.351806640625t-0.427001953125,0.362548828125t-0.4296875,0.319580078125t-0.3974609375,0.228271484375t-0.32763671875,0.088623046875q-0.0966796875,0-0.212158203125-0.03759765625t-0.212158203125-0.104736328125t-0.1611328125-0.158447265625t-0.064453125-0.2041015625q0-0.04296875-0.002685546875-0.104736328125t0.008056640625-0.1611328125t0.04296875-0.24169921875t0.0966796875-0.351806640625q-0.17724609375,0.18798828125-0.416259765625,0.39208984375t-0.502197265625,0.38671875t-0.529052734375,0.330322265625t-0.491455078125,0.222900390625q-0.02685546875,0.0107421875-0.04296875,0.0107421875l-0.0322265625,0q-0.0537109375,0-0.142333984375-0.0537109375t-0.174560546875-0.142333984375t-0.147705078125-0.201416015625t-0.061767578125-0.2255859375q0-0.0322265625,0.0322265625-0.21484375t0.153076171875-0.464599609375t0.357177734375-0.6337890625t0.64453125-0.722412109375q0.20947265625-0.18798828125,0.451171875-0.3544921875q0.2041015625-0.1396484375,0.46728515625-0.28466796875t0.55322265625-0.23095703125q0.0107421875,0,0.018798828125-0.00537109375t0.024169921875,0.00537109375q0.064453125,0.021484375,0.153076171875,0.067138671875t0.17724609375,0.0966796875t0.15576171875,0.10205078125t0.088623046875,0.083251953125q0.00537109375,0.0107421875,0,0.01611328125l-0.0107421875,0.0107421875q-0.24169921875,0.12890625-0.45654296875,0.287353515625t-0.38134765625,0.298095703125q-0.193359375,0.16650390625-0.35986328125,0.32763671875q-0.39208984375,0.38671875-0.54248046875,0.668701171875t-0.150390625,0.405517578125q0,0.09130859375,0.0751953125,0.09130859375t0.190673828125-0.061767578125t0.260498046875-0.16650390625t0.319580078125-0.2470703125t0.362548828125-0.298095703125q0.16650390625-0.13427734375,0.322265625-0.2900390625q0.13427734375-0.12890625,0.279296875-0.29541015625t0.2470703125-0.33837890625q0-0.00537109375,0.00537109375-0.0107421875t0.01611328125,0q0.05908203125,0.04296875,0.13427734375,0.142333984375t0.1396484375,0.217529296875t0.110107421875,0.228271484375t0.045654296875,0.169189453125q-0.12353515625,0.25244140625-0.190673828125,0.459228515625t-0.10205078125,0.362548828125t-0.04296875,0.265869140625t-0.008056640625,0.169189453125z M23.7939453125,13.5888671875q-0.0966796875,0-0.22021484375-0.061767578125t-0.25244140625-0.16650390625t-0.249755859375-0.2470703125t-0.201416015625-0.298095703125q-0.0322265625-0.05908203125-0.04296875-0.13427734375t-0.0107421875-0.193359375q0-0.30615234375,0.093994140625-0.614990234375t0.260498046875-0.588134765625t0.400146484375-0.523681640625t0.507568359375-0.421630859375t0.58544921875-0.279296875t0.6337890625-0.10205078125q0.04833984375,0,0.131591796875,0.051025390625t0.179931640625,0.136962890625t0.196044921875,0.193359375t0.179931640625,0.217529296875t0.131591796875,0.21484375t0.051025390625,0.185302734375q-0.02685546875,0.10205078125-0.16650390625,0.222900390625t-0.330322265625,0.2255859375t-0.400146484375,0.174560546875t-0.365234375,0.06982421875q-0.09130859375,0-0.09130859375-0.0537109375q0-0.05908203125,0.08056640625-0.174560546875t0.179931640625-0.25244140625t0.179931640625-0.27392578125t0.08056640625-0.233642578125q0-0.04833984375-0.024169921875-0.08056640625t-0.067138671875-0.0322265625q-0.1181640625,0-0.2470703125,0.107421875t-0.2578125,0.28466796875t-0.2470703125,0.405517578125t-0.206787109375,0.469970703125t-0.142333984375,0.4833984375t-0.0537109375,0.4404296875q0,0.1181640625,0.06982421875,0.163818359375t0.21484375,0.045654296875q0.35986328125,0,0.695556640625-0.120849609375t0.64453125-0.3115234375t0.588134765625-0.427001953125t0.5263671875-0.47265625q0.05908203125,0.06982421875,0.14501953125,0.136962890625t0.12890625,0.115478515625q-0.3330078125,0.34912109375-0.706298828125,0.663330078125t-0.786865234375,0.5478515625t-0.867431640625,0.37060546875t-0.947998046875,0.136962890625z M27.36572265625,13.48681640625q-0.09130859375,0-0.239013671875-0.083251953125t-0.287353515625-0.2041015625t-0.24169921875-0.249755859375t-0.10205078125-0.22021484375q0-0.1611328125,0.088623046875-0.51025390625t0.233642578125-0.797607421875t0.330322265625-0.958740234375t0.373291015625-0.9990234375l-0.75732421875,0l-0.00537109375,0q-0.00537109375,0-0.00537109375-0.0107421875q0-0.0322265625,0.024169921875-0.093994140625t0.05908203125-0.12890625t0.08056640625-0.12353515625t0.088623046875-0.072509765625l0.6982421875-0.0322265625q0.150390625-0.365234375,0.287353515625-0.674072265625t0.244384765625-0.529052734375q0.02685546875-0.05908203125,0.056396484375-0.126220703125t0.0859375-0.13427734375t0.150390625-0.1396484375t0.255126953125-0.147705078125q0.1181640625-0.05908203125,0.287353515625-0.12890625t0.3330078125-0.12890625t0.298095703125-0.099365234375t0.193359375-0.040283203125q0.0537109375,0,0.0537109375,0.021484375l0,0.0107421875q0,0.00537109375-0.0107421875,0.02685546875q-0.0322265625,0.0537109375-0.1181640625,0.233642578125t-0.212158203125,0.451171875t-0.279296875,0.61767578125t-0.314208984375,0.733154296875l1.2890625-0.04833984375q0.0537109375,0,0.0322265625,0.064453125t-0.08056640625,0.150390625t-0.136962890625,0.17724609375t-0.131591796875,0.1396484375q-0.0107421875,0.0107421875-0.04296875,0.021484375t-0.08056640625,0.0107421875l-1.0634765625,0q-0.193359375,0.46728515625-0.37060546875,0.9453125t-0.31689453125,0.90771484375t-0.222900390625,0.78955078125t-0.083251953125,0.5908203125q0,0.0322265625,0.0322265625,0.0322265625q0.05908203125,0,0.17724609375-0.067138671875t0.265869140625-0.174560546875t0.314208984375-0.236328125t0.31689453125-0.255126953125t0.271240234375-0.23095703125t0.185302734375-0.158447265625q0.04833984375,0.04833984375,0.115478515625,0.12353515625t0.126220703125,0.1396484375q-0.1181640625,0.1181640625-0.29541015625,0.287353515625t-0.384033203125,0.346435546875t-0.4296875,0.3544921875t-0.43505859375,0.31689453125t-0.394775390625,0.2255859375t-0.30615234375,0.0859375z  M33.28466796875,10.59716796875q-0.064453125,0.16650390625-0.12890625,0.34375t-0.12353515625,0.35986328125q0.33837890625-0.40283203125,0.561279296875-0.64453125t0.37060546875-0.3759765625t0.244384765625-0.18798828125t0.17724609375-0.08056640625q0.04833984375,0,0.163818359375,0.0537109375t0.2470703125,0.131591796875t0.249755859375,0.1611328125t0.16650390625,0.136962890625q0.04296875,0.04296875,0.0107421875,0.12353515625q-0.064453125,0.171875-0.126220703125,0.346435546875t-0.120849609375,0.357177734375q0.35986328125-0.41357421875,0.6015625-0.663330078125t0.394775390625-0.384033203125t0.239013671875-0.17724609375t0.13427734375-0.04296875q0.06982421875,0,0.20947265625,0.06982421875t0.281982421875,0.171875t0.2470703125,0.20947265625t0.104736328125,0.18798828125q0,0.01611328125-0.00537109375,0.040283203125t-0.01611328125,0.061767578125q-0.04296875,0.13427734375-0.110107421875,0.31689453125t-0.142333984375,0.378662109375l-0.150390625,0.39208984375t-0.13427734375,0.367919921875t-0.0966796875,0.30078125t-0.03759765625,0.18798828125q0,0.0322265625,0.0322265625,0.0322265625q0.05908203125,0,0.17724609375-0.06982421875t0.271240234375-0.1826171875t0.319580078125-0.2470703125t0.319580078125-0.265869140625t0.276611328125-0.239013671875t0.18798828125-0.1611328125q0.04833984375,0.04833984375,0.115478515625,0.12353515625t0.126220703125,0.1396484375q-0.1181640625,0.1181640625-0.29541015625,0.287353515625t-0.384033203125,0.346435546875t-0.4296875,0.3544921875t-0.432373046875,0.31689453125t-0.39208984375,0.2255859375t-0.3115234375,0.0859375q-0.08056640625,0-0.2041015625-0.056396484375t-0.236328125-0.1396484375t-0.193359375-0.185302734375t-0.08056640625-0.19873046875q0.04833984375-0.22021484375,0.12890625-0.49951171875t0.17724609375-0.572021484375t0.201416015625-0.577392578125t0.201416015625-0.5263671875q-0.107421875,0.12890625-0.28466796875,0.3115234375t-0.40283203125,0.480712890625t-0.4833984375,0.738525390625t-0.515625,1.07421875q-0.0322265625,0.107421875-0.15576171875,0.107421875q-0.064453125,0-0.158447265625-0.024169921875t-0.19873046875-0.0751953125t-0.21484375-0.126220703125t-0.206787109375-0.1826171875q0-0.03759765625,0.040283203125-0.228271484375t0.1181640625-0.486083984375t0.185302734375-0.66064453125t0.24169921875-0.751953125q-0.12890625,0.1396484375-0.322265625,0.357177734375t-0.41357421875,0.5263671875t-0.451171875,0.717041015625t-0.43505859375,0.923828125q-0.0322265625,0.11279296875-0.150390625,0.11279296875q-0.09130859375,0-0.206787109375-0.051025390625t-0.236328125-0.13427734375t-0.24169921875-0.185302734375t-0.217529296875-0.2041015625q0-0.0322265625,0.029541015625-0.1826171875t0.083251953125-0.378662109375t0.131591796875-0.52099609375t0.179931640625-0.614990234375t0.2255859375-0.657958984375t0.26318359375-0.647216796875q0.2255859375,0.107421875,0.502197265625,0.26318359375t0.507568359375,0.365234375z M41.7978515625,11.8701171875q-0.494140625,0.4833984375-0.931884765625,0.81103515625t-0.835205078125,0.5263671875t-0.760009765625,0.28466796875t-0.706298828125,0.0859375q-0.14501953125,0-0.322265625-0.107421875t-0.330322265625-0.260498046875t-0.255126953125-0.319580078125t-0.10205078125-0.28466796875q0-0.4404296875,0.120849609375-0.808349609375t0.319580078125-0.663330078125t0.453857421875-0.52099609375t0.53173828125-0.3759765625t0.550537109375-0.2255859375t0.5048828125-0.0751953125q0.16650390625,0,0.330322265625,0.0966796875t0.298095703125,0.236328125t0.217529296875,0.292724609375t0.083251953125,0.265869140625q0,0.1826171875-0.153076171875,0.373291015625t-0.432373046875,0.389404296875t-0.67138671875,0.405517578125t-0.86474609375,0.416259765625q-0.01611328125,0.12890625-0.01611328125,0.25244140625q0,0.16650390625,0.072509765625,0.2255859375t0.271240234375,0.05908203125q0.3544921875,0,0.668701171875-0.1181640625t0.604248046875-0.30615234375t0.55859375-0.4296875t0.53173828125-0.48876953125z M39.9072265625,10.52734375q-0.107421875,0-0.236328125,0.115478515625t-0.2578125,0.303466796875t-0.2470703125,0.432373046875t-0.2041015625,0.507568359375q0.19873046875-0.12890625,0.389404296875-0.27392578125t0.341064453125-0.303466796875t0.24169921875-0.324951171875t0.09130859375-0.3330078125q0-0.04833984375-0.029541015625-0.0859375t-0.088623046875-0.03759765625z "/></svg>
</svg>
	</g>


<svg xmlns="http://www.w3.org/2000/svg" xmlns:xlink="http://www.w3.org/1999/xlink" version="1.1" width="268" height="268" viewBox="0 0 2000 2000" x="68" y="6.1" shape-rendering="crispEdges"><defs/><rect x="0" y="0" width="2000" height="2000" fill="#ffffff"/><rect x="840" y="200" width="64" height="64" fill="#1c1c22"/><rect x="1160" y="200" width="64" height="64" fill="#1c1c22"/><rect x="712" y="264" width="64" height="64" fill="#1c1c22"/><rect x="776" y="264" width="64" height="64" fill="#1c1c22"/><rect x="840" y="264" width="64" height="64" fill="#1c1c22"/><rect x="1032" y="264" width="64" height="64" fill="#1c1c22"/><rect x="1096" y="264" width="64" height="64" fill="#1c1c22"/><rect x="1224" y="264" width="64" height="64" fill="#1c1c22"/><rect x="712" y="328" width="64" height="64" fill="#1c1c22"/><rect x="1160" y="328" width="64" height="64" fill="#1c1c22"/><rect x="1224" y="328" width="64" height="64" fill="#1c1c22"/><rect x="776" y="392" width="64" height="64" fill="#1c1c22"/><rect x="968" y="392" width="64" height="64" fill="#1c1c22"/><rect x="1160" y="392" width="64" height="64" fill="#1c1c22"/><rect x="1224" y="392" width="64" height="64" fill="#1c1c22"/><rect x="712" y="456" width="64" height="64" fill="#1c1c22"/><rect x="776" y="456" width="64" height="64" fill="#1c1c22"/><rect x="840" y="456" width="64" height="64" fill="#1c1c22"/><rect x="968" y="456" width="64" height="64" fill="#1c1c22"/><rect x="1032" y="456" width="64" height="64" fill="#1c1c22"/><rect x="1096" y="456" width="64" height="64" fill="#1c1c22"/><rect x="1224" y="456" width="64" height="64" fill="#1c1c22"/><rect x="712" y="520" width="64" height="64" fill="#1c1c22"/><rect x="840" y="520" width="64" height="64" fill="#1c1c22"/><rect x="968" y="520" width="64" height="64" fill="#1c1c22"/><rect x="1160" y="520" width="64" height="64" fill="#1c1c22"/><rect x="712" y="584" width="64" height="64" fill="#1c1c22"/><rect x="840" y="584" width="64" height="64" fill="#1c1c22"/><rect x="968" y="584" width="64" height="64" fill="#1c1c22"/><rect x="1096" y="584" width="64" height="64" fill="#1c1c22"/><rect x="1224" y="584" width="64" height="64" fill="#1c1c22"/><rect x="712" y="648" width="64" height="64" fill="#1c1c22"/><rect x="840" y="648" width="64" height="64" fill="#1c1c22"/><rect x="904" y="648" width="64" height="64" fill="#1c1c22"/><rect x="200" y="712" width="64" height="64" fill="#1c1c22"/><rect x="264" y="712" width="64" height="64" fill="#1c1c22"/><rect x="392" y="712" width="64" height="64" fill="#1c1c22"/><rect x="584" y="712" width="64" height="64" fill="#1c1c22"/><rect x="648" y="712" width="64" height="64" fill="#1c1c22"/><rect x="904" y="712" width="64" height="64" fill="#1c1c22"/><rect x="968" y="712" width="64" height="64" fill="#1c1c22"/><rect x="1032" y="712" width="64" height="64" fill="#1c1c22"/><rect x="1096" y="712" width="64" height="64" fill="#1c1c22"/><rect x="1224" y="712" width="64" height="64" fill="#1c1c22"/><rect x="1352" y="712" width="64" height="64" fill="#1c1c22"/><rect x="1416" y="712" width="64" height="64" fill="#1c1c22"/><rect x="1480" y="712" width="64" height="64" fill="#1c1c22"/><rect x="1608" y="712" width="64" height="64" fill="#1c1c22"/><rect x="1672" y="712" width="64" height="64" fill="#1c1c22"/><rect x="264" y="776" width="64" height="64" fill="#1c1c22"/><rect x="328" y="776" width="64" height="64" fill="#1c1c22"/><rect x="392" y="776" width="64" height="64" fill="#1c1c22"/><rect x="456" y="776" width="64" height="64" fill="#1c1c22"/><rect x="648" y="776" width="64" height="64" fill="#1c1c22"/><rect x="712" y="776" width="64" height="64" fill="#1c1c22"/><rect x="776" y="776" width="64" height="64" fill="#1c1c22"/><rect x="904" y="776" width="64" height="64" fill="#1c1c22"/><rect x="968" y="776" width="64" height="64" fill="#1c1c22"/><rect x="1032" y="776" width="64" height="64" fill="#1c1c22"/><rect x="1160" y="776" width="64" height="64" fill="#1c1c22"/><rect x="1224" y="776" width="64" height="64" fill="#1c1c22"/><rect x="1352" y="776" width="64" height="64" fill="#1c1c22"/><rect x="1480" y="776" width="64" height="64" fill="#1c1c22"/><rect x="1672" y="776" width="64" height="64" fill="#1c1c22"/><rect x="328" y="840" width="64" height="64" fill="#1c1c22"/><rect x="392" y="840" width="64" height="64" fill="#1c1c22"/><rect x="520" y="840" width="64" height="64" fill="#1c1c22"/><rect x="584" y="840" width="64" height="64" fill="#1c1c22"/><rect x="648" y="840" width="64" height="64" fill="#1c1c22"/><rect x="712" y="840" width="64" height="64" fill="#1c1c22"/><rect x="904" y="840" width="64" height="64" fill="#1c1c22"/><rect x="968" y="840" width="64" height="64" fill="#1c1c22"/><rect x="1288" y="840" width="64" height="64" fill="#1c1c22"/><rect x="1352" y="840" width="64" height="64" fill="#1c1c22"/><rect x="1416" y="840" width="64" height="64" fill="#1c1c22"/><rect x="1544" y="840" width="64" height="64" fill="#1c1c22"/><rect x="1608" y="840" width="64" height="64" fill="#1c1c22"/><rect x="264" y="904" width="64" height="64" fill="#1c1c22"/><rect x="456" y="904" width="64" height="64" fill="#1c1c22"/><rect x="520" y="904" width="64" height="64" fill="#1c1c22"/><rect x="648" y="904" width="64" height="64" fill="#1c1c22"/><rect x="712" y="904" width="64" height="64" fill="#1c1c22"/><rect x="776" y="904" width="64" height="64" fill="#1c1c22"/><rect x="840" y="904" width="64" height="64" fill="#1c1c22"/><rect x="904" y="904" width="64" height="64" fill="#1c1c22"/><rect x="968" y="904" width="64" height="64" fill="#1c1c22"/><rect x="1032" y="904" width="64" height="64" fill="#1c1c22"/><rect x="1096" y="904" width="64" height="64" fill="#1c1c22"/><rect x="1224" y="904" width="64" height="64" fill="#1c1c22"/><rect x="1288" y="904" width="64" height="64" fill="#1c1c22"/><rect x="1352" y="904" width="64" height="64" fill="#1c1c22"/><rect x="1416" y="904" width="64" height="64" fill="#1c1c22"/><rect x="1480" y="904" width="64" height="64" fill="#1c1c22"/><rect x="1736" y="904" width="64" height="64" fill="#1c1c22"/><rect x="328" y="968" width="64" height="64" fill="#1c1c22"/><rect x="456" y="968" width="64" height="64" fill="#1c1c22"/><rect x="584" y="968" width="64" height="64" fill="#1c1c22"/><rect x="648" y="968" width="64" height="64" fill="#1c1c22"/><rect x="840" y="968" width="64" height="64" fill="#1c1c22"/><rect x="904" y="968" width="64" height="64" fill="#1c1c22"/><rect x="1224" y="968" width="64" height="64" fill="#1c1c22"/><rect x="1352" y="968" width="64" height="64" fill="#1c1c22"/><rect x="1416" y="968" width="64" height="64" fill="#1c1c22"/><rect x="1608" y="968" width="64" height="64" fill="#1c1c22"/><rect x="1672" y="968" width="64" height="64" fill="#1c1c22"/><rect x="1736" y="968" width="64" height="64" fill="#1c1c22"/><rect x="328" y="1032" width="64" height="64" fill="#1c1c22"/><rect x="456" y="1032" width="64" height="64" fill="#1c1c22"/><rect x="648" y="1032" width="64" height="64" fill="#1c1c22"/><rect x="712" y="1032" width="64" height="64" fill="#1c1c22"/><rect x="776" y="1032" width="64" height="64" fill="#1c1c22"/><rect x="904" y="1032" width="64" height="64" fill="#1c1c22"/><rect x="1096" y="1032" width="64" height="64" fill="#1c1c22"/><rect x="1416" y="1032" width="64" height="64" fill="#1c1c22"/><rect x="1480" y="1032" width="64" height="64" fill="#1c1c22"/><rect x="1608" y="1032" width="64" height="64" fill="#1c1c22"/><rect x="1672" y="1032" width="64" height="64" fill="#1c1c22"/><rect x="1736" y="1032" width="64" height="64" fill="#1c1c22"/><rect x="200" y="1096" width="64" height="64" fill="#1c1c22"/><rect x="328" y="1096" width="64" height="64" fill="#1c1c22"/><rect x="456" y="1096" width="64" height="64" fill="#1c1c22"/><rect x="520" y="1096" width="64" height="64" fill="#1c1c22"/><rect x="584" y="1096" width="64" height="64" fill="#1c1c22"/><rect x="840" y="1096" width="64" height="64" fill="#1c1c22"/><rect x="904" y="1096" width="64" height="64" fill="#1c1c22"/><rect x="1032" y="1096" width="64" height="64" fill="#1c1c22"/><rect x="1096" y="1096" width="64" height="64" fill="#1c1c22"/><rect x="1160" y="1096" width="64" height="64" fill="#1c1c22"/><rect x="1224" y="1096" width="64" height="64" fill="#1c1c22"/><rect x="1352" y="1096" width="64" height="64" fill="#1c1c22"/><rect x="1480" y="1096" width="64" height="64" fill="#1c1c22"/><rect x="1544" y="1096" width="64" height="64" fill="#1c1c22"/><rect x="1736" y="1096" width="64" height="64" fill="#1c1c22"/><rect x="264" y="1160" width="64" height="64" fill="#1c1c22"/><rect x="712" y="1160" width="64" height="64" fill="#1c1c22"/><rect x="776" y="1160" width="64" height="64" fill="#1c1c22"/><rect x="904" y="1160" width="64" height="64" fill="#1c1c22"/><rect x="1352" y="1160" width="64" height="64" fill="#1c1c22"/><rect x="1416" y="1160" width="64" height="64" fill="#1c1c22"/><rect x="200" y="1224" width="64" height="64" fill="#1c1c22"/><rect x="264" y="1224" width="64" height="64" fill="#1c1c22"/><rect x="328" y="1224" width="64" height="64" fill="#1c1c22"/><rect x="392" y="1224" width="64" height="64" fill="#1c1c22"/><rect x="456" y="1224" width="64" height="64" fill="#1c1c22"/><rect x="520" y="1224" width="64" height="64" fill="#1c1c22"/><rect x="584" y="1224" width="64" height="64" fill="#1c1c22"/><rect x="648" y="1224" width="64" height="64" fill="#1c1c22"/><rect x="712" y="1224" width="64" height="64" fill="#1c1c22"/><rect x="776" y="1224" width="64" height="64" fill="#1c1c22"/><rect x="840" y="1224" width="64" height="64" fill="#1c1c22"/><rect x="968" y="1224" width="64" height="64" fill="#1c1c22"/><rect x="1224" y="1224" width="64" height="64" fill="#1c1c22"/><rect x="1288" y="1224" width="64" height="64" fill="#1c1c22"/><rect x="1352" y="1224" width="64" height="64" fill="#1c1c22"/><rect x="1416" y="1224" width="64" height="64" fill="#1c1c22"/><rect x="1480" y="1224" width="64" height="64" fill="#1c1c22"/><rect x="1736" y="1224" width="64" height="64" fill="#1c1c22"/><rect x="712" y="1288" width="64" height="64" fill="#1c1c22"/><rect x="776" y="1288" width="64" height="64" fill="#1c1c22"/><rect x="968" y="1288" width="64" height="64" fill="#1c1c22"/><rect x="1032" y="1288" width="64" height="64" fill="#1c1c22"/><rect x="1224" y="1288" width="64" height="64" fill="#1c1c22"/><rect x="1480" y="1288" width="64" height="64" fill="#1c1c22"/><rect x="712" y="1352" width="64" height="64" fill="#1c1c22"/><rect x="904" y="1352" width="64" height="64" fill="#1c1c22"/><rect x="968" y="1352" width="64" height="64" fill="#1c1c22"/><rect x="1032" y="1352" width="64" height="64" fill="#1c1c22"/><rect x="1160" y="1352" width="64" height="64" fill="#1c1c22"/><rect x="1224" y="1352" width="64" height="64" fill="#1c1c22"/><rect x="1352" y="1352" width="64" height="64" fill="#1c1c22"/><rect x="1480" y="1352" width="64" height="64" fill="#1c1c22"/><rect x="1544" y="1352" width="64" height="64" fill="#1c1c22"/><rect x="1672" y="1352" width="64" height="64" fill="#1c1c22"/><rect x="1736" y="1352" width="64" height="64" fill="#1c1c22"/><rect x="776" y="1416" width="64" height="64" fill="#1c1c22"/><rect x="840" y="1416" width="64" height="64" fill="#1c1c22"/><rect x="968" y="1416" width="64" height="64" fill="#1c1c22"/><rect x="1096" y="1416" width="64" height="64" fill="#1c1c22"/><rect x="1224" y="1416" width="64" height="64" fill="#1c1c22"/><rect x="1480" y="1416" width="64" height="64" fill="#1c1c22"/><rect x="1544" y="1416" width="64" height="64" fill="#1c1c22"/><rect x="1608" y="1416" width="64" height="64" fill="#1c1c22"/><rect x="1672" y="1416" width="64" height="64" fill="#1c1c22"/><rect x="1736" y="1416" width="64" height="64" fill="#1c1c22"/><rect x="968" y="1480" width="64" height="64" fill="#1c1c22"/><rect x="1096" y="1480" width="64" height="64" fill="#1c1c22"/><rect x="1160" y="1480" width="64" height="64" fill="#1c1c22"/><rect x="1224" y="1480" width="64" height="64" fill="#1c1c22"/><rect x="1288" y="1480" width="64" height="64" fill="#1c1c22"/><rect x="1352" y="1480" width="64" height="64" fill="#1c1c22"/><rect x="1416" y="1480" width="64" height="64" fill="#1c1c22"/><rect x="1480" y="1480" width="64" height="64" fill="#1c1c22"/><rect x="1608" y="1480" width="64" height="64" fill="#1c1c22"/><rect x="1672" y="1480" width="64" height="64" fill="#1c1c22"/><rect x="712" y="1544" width="64" height="64" fill="#1c1c22"/><rect x="904" y="1544" width="64" height="64" fill="#1c1c22"/><rect x="1032" y="1544" width="64" height="64" fill="#1c1c22"/><rect x="1160" y="1544" width="64" height="64" fill="#1c1c22"/><rect x="1224" y="1544" width="64" height="64" fill="#1c1c22"/><rect x="1288" y="1544" width="64" height="64" fill="#1c1c22"/><rect x="1416" y="1544" width="64" height="64" fill="#1c1c22"/><rect x="1480" y="1544" width="64" height="64" fill="#1c1c22"/><rect x="776" y="1608" width="64" height="64" fill="#1c1c22"/><rect x="968" y="1608" width="64" height="64" fill="#1c1c22"/><rect x="1160" y="1608" width="64" height="64" fill="#1c1c22"/><rect x="1416" y="1608" width="64" height="64" fill="#1c1c22"/><rect x="1544" y="1608" width="64" height="64" fill="#1c1c22"/><rect x="1608" y="1608" width="64" height="64" fill="#1c1c22"/><rect x="1736" y="1608" width="64" height="64" fill="#1c1c22"/><rect x="712" y="1672" width="64" height="64" fill="#1c1c22"/><rect x="776" y="1672" width="64" height="64" fill="#1c1c22"/><rect x="840" y="1672" width="64" height="64" fill="#1c1c22"/><rect x="1032" y="1672" width="64" height="64" fill="#1c1c22"/><rect x="1096" y="1672" width="64" height="64" fill="#1c1c22"/><rect x="1224" y="1672" width="64" height="64" fill="#1c1c22"/><rect x="1288" y="1672" width="64" height="64" fill="#1c1c22"/><rect x="1544" y="1672" width="64" height="64" fill="#1c1c22"/><rect x="1672" y="1672" width="64" height="64" fill="#1c1c22"/><rect x="1736" y="1672" width="64" height="64" fill="#1c1c22"/><rect x="712" y="1736" width="64" height="64" fill="#1c1c22"/><rect x="776" y="1736" width="64" height="64" fill="#1c1c22"/><rect x="1096" y="1736" width="64" height="64" fill="#1c1c22"/><rect x="1224" y="1736" width="64" height="64" fill="#1c1c22"/><rect x="1480" y="1736" width="64" height="64" fill="#1c1c22"/><rect x="1544" y="1736" width="64" height="64" fill="#1c1c22"/><rect x="1672" y="1736" width="64" height="64" fill="#1c1c22"/><rect x="1736" y="1736" width="64" height="64" fill="#1c1c22"/><svg version="1.1" id="Ebene_1" x="200" y="200" width="448" height="448" viewBox="0 0 699.988 699.988" enable-background="new 0 0 699.988 699.988" xml:space="preserve" shape-rendering="auto">
<path fill="#00ff99" d="M488.367,0H211.621C94.746,0,0,94.746,0,211.621v276.745c0,116.876,94.746,211.622,211.621,211.622h276.746  c116.875,0,211.621-94.746,211.621-211.622V211.621C699.988,94.746,605.242,0,488.367,0z M599.99,448.832  c0,83.482-67.676,151.158-151.158,151.158H251.156c-83.482,0-151.158-67.676-151.158-151.158V251.156  c0-83.482,67.676-151.158,151.158-151.158h197.676c83.482,0,151.158,67.676,151.158,151.158V448.832z"/>
</svg>
<svg version="1.1" id="Ebene_1" x="200" y="200" width="448" height="448" viewBox="0 0 699.988 699.988" enable-background="new 0 0 699.988 699.988" xml:space="preserve" shape-rendering="auto">
<path fill="#000000" d="M499.991,409.296c0,50.091-40.604,90.694-90.693,90.694H290.691c-50.089,0-90.694-40.604-90.694-90.694  V290.692c0-50.09,40.605-90.694,90.694-90.694h118.605c50.089,0,90.693,40.604,90.693,90.694L499.991,409.296L499.991,409.296z"/>
</svg>
<svg version="1.1" id="Ebene_1" x="1352" y="200" width="448" height="448" viewBox="0 0 699.988 699.988" enable-background="new 0 0 699.988 699.988" xml:space="preserve" shape-rendering="auto">
<path fill="#00ff99" d="M488.367,0H211.621C94.746,0,0,94.746,0,211.621v276.745c0,116.876,94.746,211.622,211.621,211.622h276.746  c116.875,0,211.621-94.746,211.621-211.622V211.621C699.988,94.746,605.242,0,488.367,0z M599.99,448.832  c0,83.482-67.676,151.158-151.158,151.158H251.156c-83.482,0-151.158-67.676-151.158-151.158V251.156  c0-83.482,67.676-151.158,151.158-151.158h197.676c83.482,0,151.158,67.676,151.158,151.158V448.832z"/>
</svg>
<svg version="1.1" id="Ebene_1" x="1352" y="200" width="448" height="448" viewBox="0 0 699.988 699.988" enable-background="new 0 0 699.988 699.988" xml:space="preserve" shape-rendering="auto">
<path fill="#000000" d="M499.991,409.296c0,50.091-40.604,90.694-90.693,90.694H290.691c-50.089,0-90.694-40.604-90.694-90.694  V290.692c0-50.09,40.605-90.694,90.694-90.694h118.605c50.089,0,90.693,40.604,90.693,90.694L499.991,409.296L499.991,409.296z"/>
</svg>
<svg version="1.1" id="Ebene_1" x="200" y="1352" width="448" height="448" viewBox="0 0 699.988 699.988" enable-background="new 0 0 699.988 699.988" xml:space="preserve" shape-rendering="auto">
<path fill="#00ff99" d="M488.367,0H211.621C94.746,0,0,94.746,0,211.621v276.745c0,116.876,94.746,211.622,211.621,211.622h276.746  c116.875,0,211.621-94.746,211.621-211.622V211.621C699.988,94.746,605.242,0,488.367,0z M599.99,448.832  c0,83.482-67.676,151.158-151.158,151.158H251.156c-83.482,0-151.158-67.676-151.158-151.158V251.156  c0-83.482,67.676-151.158,151.158-151.158h197.676c83.482,0,151.158,67.676,151.158,151.158V448.832z"/>
</svg>
<svg version="1.1" id="Ebene_1" x="200" y="1352" width="448" height="448" viewBox="0 0 699.988 699.988" enable-background="new 0 0 699.988 699.988" xml:space="preserve" shape-rendering="auto">
<path fill="#000000" d="M499.991,409.296c0,50.091-40.604,90.694-90.693,90.694H290.691c-50.089,0-90.694-40.604-90.694-90.694  V290.692c0-50.09,40.605-90.694,90.694-90.694h118.605c50.089,0,90.693,40.604,90.693,90.694L499.991,409.296L499.991,409.296z"/>
</svg>
</svg>

</svg>
